<svg xmlns="http://www.w3.org/2000/svg" viewBox="0 0 200 132">
  <path d="M100 92 L130 30 L145 52 L160 36 L172 118 Z" fill="#7A9A7E"/>
  <circle cx="152" cy="16" r="7" fill="#C9A227"/>
  <rect x="34" y="72" width="15" height="50" fill="#4F6B54"/>
  <rect x="53" y="44" width="15" height="78" fill="#4F6B54"/>
  <rect x="72" y="26" width="12" height="96" fill="#4F6B54"/>
  <rect x="76" y="4" width="4" height="22" fill="#4F6B54"/>
  <ellipse cx="78" cy="26" rx="9" ry="4.5" fill="#4F6B54"/>
  <rect x="88" y="48" width="11" height="70" fill="#4F6B54"/>
  <path d="M14 124 L100 56 L186 124 V150 H14 Z" fill="#F7F7F4"/>
  <path d="M22 120 L100 60 L178 120" fill="none" stroke="#F7F7F4" stroke-width="20" stroke-linejoin="miter"/>
  <path d="M22 120 L100 60 L178 120" fill="none" stroke="#4F6B54" stroke-width="11" stroke-linejoin="miter"/>
  <g fill="#C9A227">
    <rect x="89" y="90" width="10" height="10" rx="1"/><rect x="101" y="90" width="10" height="10" rx="1"/>
    <rect x="89" y="102" width="10" height="10" rx="1"/><rect x="101" y="102" width="10" height="10" rx="1"/>
  </g>
</svg>